<?xml version="1.0" encoding="UTF-8" standalone="no"?>
<svg
   xmlns:dc="http://purl.org/dc/elements/1.1/"
   xmlns:cc="http://creativecommons.org/ns#"
   xmlns:rdf="http://www.w3.org/1999/02/22-rdf-syntax-ns#"
   xmlns:svg="http://www.w3.org/2000/svg"
   xmlns="http://www.w3.org/2000/svg"
   xmlns:sodipodi="http://sodipodi.sourceforge.net/DTD/sodipodi-0.dtd"
   xmlns:inkscape="http://www.inkscape.org/namespaces/inkscape"
   inkscape:version="1.0 (5b275a35d9, 2020-05-03)"
   sodipodi:docname="logo_PN_wihte.svg"
   id="svg59"
   height="18.796mm"
   width="91.820999mm"
   version="1.0">
  <metadata
     id="metadata63">
    <rdf:RDF>
      <cc:Work
         rdf:about="">
        <dc:format>image/svg+xml</dc:format>
        <dc:type
           rdf:resource="http://purl.org/dc/dcmitype/StillImage" />
        <dc:title></dc:title>
      </cc:Work>
    </rdf:RDF>
  </metadata>
  <sodipodi:namedview
     inkscape:current-layer="svg59"
     inkscape:window-maximized="1"
     inkscape:window-y="27"
     inkscape:window-x="70"
     inkscape:cy="61.600301"
     inkscape:cx="184.54284"
     inkscape:zoom="2.4124436"
     showgrid="false"
     id="namedview61"
     inkscape:window-height="1016"
     inkscape:window-width="1850"
     inkscape:pageshadow="2"
     inkscape:pageopacity="0"
     guidetolerance="10"
     gridtolerance="10"
     objecttolerance="10"
     borderopacity="1"
     bordercolor="#666666"
     pagecolor="#ffffff" />
  <defs
     id="defs3">
    <pattern
       y="0"
       x="0"
       height="6"
       width="6"
       patternUnits="userSpaceOnUse"
       id="EMFhbasepattern" />
  </defs>
  <path
     id="path5"
     d="  M 148.33333,35   C 137.66667,9.6666667 137.66667,9.6666667 137.66667,9.6666667   C 137.33333,9.3333333 137.33333,9.3333333 137.33333,9.3333333   C 137.33333,9.3333333 137.33333,9.3333333 137.33333,9.3333333   C 137,9.3333333 137,9.3333333 137,9.3333333   C 136.66667,9.3333333 136.66667,9.3333333 136.66667,9.3333333   C 136.66667,9.3333333 136.66667,9.6666667 136.33333,9.6666667   C 125.66667,35 125.66667,35 125.66667,35   C 125.66667,35.333333 126,35.333333 126,35.333333   C 127.33333,35.333333 127.33333,35.333333 127.33333,35.333333   C 127.33333,35.333333 127.33333,35.333333 127.66667,35   C 131.33333,26 131.33333,26 131.33333,26   C 141,26 141,26 141,26   C 144.66667,35 144.66667,35 144.66667,35   C 144.66667,35.333333 145,35.333333 145,35.333333   C 148,35.333333 148,35.333333 148,35.333333   C 148.33333,35.333333 148.33333,35.333333 148.33333,35   M 132,25   C 136,14.666667 136,14.666667 136,14.666667   C 140.33333,25 140.33333,25 140.33333,25   z "
     style="fill:#ffffff;fill-rule:nonzero;fill-opacity:1;stroke:none" />
  <path
     id="path7"
     d="  M 190,35   C 182,23.333333 182,23.333333 182,23.333333   C 185.66667,23 188.33333,20.333333 188.33333,16.666667   C 188.33333,12.666667 185,10 181.33333,10   C 175.66667,10 175.66667,10 175.66667,10   C 175.66667,10 175.66667,10 175.66667,10   C 172.66667,10 172.66667,10 172.66667,10   C 172.33333,10 172.33333,10 172.33333,10.333333   C 172.33333,35 172.33333,35 172.33333,35   C 172.33333,35.333333 172.33333,35.333333 172.66667,35.333333   C 175.66667,35.333333 175.66667,35.333333 175.66667,35.333333   C 175.66667,35.333333 175.66667,35.333333 175.66667,35   C 175.66667,23.333333 175.66667,23.333333 175.66667,23.333333   C 178,23.333333 178,23.333333 178,23.333333   C 186.33333,35 186.33333,35 186.33333,35   C 186.33333,35.333333 186.33333,35.333333 186.66667,35.333333   C 190,35.333333 190,35.333333 190,35.333333   C 190,35.333333 190.33333,35.333333 190,35   M 175.66667,11   C 180,11 180,11 180,11   C 183.33333,11 185.33333,13.333333 185.33333,16.666667   C 185.33333,20 183.33333,22.333333 180,22.333333   C 180,22.333333 180,22.333333 180,22.333333   C 175.66667,22.333333 175.66667,22.333333 175.66667,22.333333   z "
     style="fill:#ffffff;fill-rule:nonzero;fill-opacity:1;stroke:none" />
  <path
     id="path9"
     d="  M 167,10   C 158.66667,10 158.66667,10 158.66667,10   C 157,10 157,10 157,10   C 148.66667,10 148.66667,10 148.66667,10   C 148.33333,10 148.33333,10 148.33333,10.333333   C 148.33333,11.333333 148.33333,11.333333 148.33333,11.333333   C 148.33333,11.666667 148.33333,11.666667 148.66667,11.666667   C 156,11.666667 156,11.666667 156,11.666667   C 156,35 156,35 156,35   C 156,35.333333 156.33333,35.333333 156.33333,35.333333   C 159.33333,35.333333 159.33333,35.333333 159.33333,35.333333   C 159.66667,35.333333 159.66667,35.333333 159.66667,35   C 159.66667,11.666667 159.66667,11.666667 159.66667,11.666667   C 167,11.666667 167,11.666667 167,11.666667   C 167,11.666667 167.33333,11.666667 167.33333,11.333333   C 167.33333,10.333333 167.33333,10.333333 167.33333,10.333333   C 167.33333,10 167,10 167,10   z "
     style="fill:#ffffff;fill-rule:nonzero;fill-opacity:1;stroke:none" />
  <path
     id="path11"
     d="  M 201,35   C 201,35.333333 201,35.333333 201,35.333333   C 198,35.333333 198,35.333333 198,35.333333   C 197.66667,35.333333 197.66667,35.333333 197.66667,35   C 197.66667,10.333333 197.66667,10.333333 197.66667,10.333333   C 197.66667,10 197.66667,10 198,10   C 201,10 201,10 201,10   C 201,10 201,10 201,10.333333   z "
     style="fill:#ffffff;fill-rule:nonzero;fill-opacity:1;stroke:none" />
  <path
     id="path13"
     d="  M 312.33333,35   C 312.33333,35.333333 312,35.333333 312,35.333333   C 309,35.333333 309,35.333333 309,35.333333   C 308.66667,35.333333 308.66667,35.333333 308.66667,35   C 308.66667,10.333333 308.66667,10.333333 308.66667,10.333333   C 308.66667,10 308.66667,10 309,10   C 312,10 312,10 312,10   C 312,10 312.33333,10 312.33333,10.333333   z "
     style="fill:#ffffff;fill-rule:nonzero;fill-opacity:1;stroke:none" />
  <path
     id="path15"
     d="  M 236.66667,10   C 233.66667,10 233.66667,10 233.66667,10   C 233.66667,10 233.66667,10 233.66667,10   C 233.66667,10 233.66667,10 233.66667,10   C 233.66667,10 233.33333,10 233.33333,10.333333   C 223.66667,30.333333 223.66667,30.333333 223.66667,30.333333   C 214.66667,10.333333 214.66667,10.333333 214.66667,10.333333   C 214.66667,10 214.66667,10 214.33333,10   C 211,10 211,10 211,10   C 210,10 210,10 210,10   C 210,10 210,10 210,10.333333   C 210,35 210,35 210,35   C 210,35.333333 210,35.333333 210,35.333333   C 211.66667,35.333333 211.66667,35.333333 211.66667,35.333333   C 212,35.333333 212,35.333333 212,35   C 212,12.666667 212,12.666667 212,12.666667   C 222,35 222,35 222,35   C 222,35.333333 222.33333,35.333333 222.33333,35.333333   C 225.33333,35.333333 225.33333,35.333333 225.33333,35.333333   C 225.66667,35.333333 226,35.333333 225.66667,35   C 224.66667,33 224.66667,33 224.66667,33   C 233.33333,15 233.33333,15 233.33333,15   C 233.33333,35 233.33333,35 233.33333,35   C 233.33333,35.333333 233.66667,35.333333 233.66667,35.333333   C 236.66667,35.333333 236.66667,35.333333 236.66667,35.333333   C 237,35.333333 237,35.333333 237,35   C 237,10.333333 237,10.333333 237,10.333333   C 237,10 237,10 236.66667,10   z "
     style="fill:#ffffff;fill-rule:nonzero;fill-opacity:1;stroke:none" />
  <path
     id="path17"
     d="  M 271,22.666667   C 271,30 265,36 257.66667,36   C 250,36 244,30 244,22.666667   C 244,15.333333 250,9.3333333 257.66667,9.3333333   C 265,9.3333333 271,15.333333 271,22.666667   M 257.66667,10.666667   C 252.33333,10.666667 247.66667,16 247.66667,22.666667   C 247.66667,29.333333 252.33333,35 257.66667,35   C 263,35 267.33333,29.333333 267.33333,22.666667   C 267.33333,16 263,10.666667 257.66667,10.666667   z "
     style="fill:#ffffff;fill-rule:nonzero;fill-opacity:1;stroke:none" />
  <path
     id="path19"
     d="  M 347.33333,22.666667   C 347.33333,30 341.33333,36 333.66667,36   C 326.33333,36 320.33333,30 320.33333,22.666667   C 320.33333,15.333333 326.33333,9.3333333 333.66667,9.3333333   C 341.33333,9.3333333 347.33333,15.333333 347.33333,22.666667   M 333.66667,10.666667   C 328.33333,10.666667 324,16 324,22.666667   C 324,29.333333 328.33333,35 333.66667,35   C 339,35 343.33333,29.333333 343.33333,22.666667   C 343.33333,16 339,10.666667 333.66667,10.666667   z "
     style="fill:#ffffff;fill-rule:nonzero;fill-opacity:1;stroke:none" />
  <path
     id="path21"
     d="  M 118.33333,10   C 112.33333,10 112.33333,10 112.33333,10   C 109.33333,10 109.33333,10 109.33333,10   C 109.33333,10 109.33333,10 109.33333,10   C 109,10 109,10 109,10   C 107.66667,10 107.66667,10 107.66667,10   C 107.66667,10 107.33333,10.333333 107.66667,10.666667   C 109.33333,12.333333 109.33333,12.333333 109.33333,12.333333   C 109.33333,35 109.33333,35 109.33333,35   C 109.33333,35.333333 109.33333,35.333333 109.33333,35.333333   C 112.33333,35.333333 112.33333,35.333333 112.33333,35.333333   C 112.66667,35.333333 112.66667,35.333333 112.66667,35   C 112.66667,24 112.66667,24 112.66667,24   C 118.33333,24 118.33333,24 118.33333,24   C 118.33333,24 118.33333,24 118.33333,24   C 118.33333,24 118.33333,24 118.33333,24   C 118.33333,24 118.33333,24 118.33333,24   C 122,24 125.33333,20.666667 125.33333,17   C 125.33333,13 122,10 118.33333,10   M 116.66667,23   C 116.66667,23 116.66667,23 116.66667,23   C 112.66667,23 112.66667,23 112.66667,23   C 112.66667,11 112.66667,11 112.66667,11   C 117,11 117,11 117,11   C 120,11 122,13.666667 122,17   C 122,20.333333 120,23 116.66667,23   z "
     style="fill:#ffffff;fill-rule:nonzero;fill-opacity:1;stroke:none" />
  <path
     id="path23"
     d="  M 299.33333,10   C 297.66667,10 297.66667,10 297.66667,10   C 297.66667,10 297.66667,10 297.66667,10.333333   C 297.66667,29 297.66667,29 297.66667,29   C 281.33333,10.333333 281.33333,10.333333 281.33333,10.333333   C 281.33333,10.333333 281.33333,10 281,10   C 277,10 277,10 277,10   C 277,10 276.66667,10.333333 277,10.666667   C 278.33333,12.333333 278.33333,12.333333 278.33333,12.333333   C 278.33333,35 278.33333,35 278.33333,35   C 278.33333,35.333333 278.66667,35.333333 278.66667,35.333333   C 280.33333,35.333333 280.33333,35.333333 280.33333,35.333333   C 280.66667,35.333333 280.66667,35.333333 280.66667,35   C 280.66667,14.666667 280.66667,14.666667 280.66667,14.666667   C 298.33333,35 298.33333,35 298.33333,35   C 298.66667,35.333333 298.66667,35.333333 298.66667,35.333333   C 299,35.333333 299,35.333333 299,35.333333   C 299,35.333333 299,35.333333 299,35.333333   C 299.33333,35.333333 299.33333,35.333333 299.33333,35.333333   C 299.33333,35.333333 299.33333,35.333333 299.33333,35.333333   C 299.66667,35.333333 299.66667,35.333333 299.66667,35   C 299.66667,10.333333 299.66667,10.333333 299.66667,10.333333   C 299.66667,10 299.66667,10 299.33333,10   z "
     style="fill:#ffffff;fill-rule:nonzero;fill-opacity:1;stroke:none" />
  <path
     id="path25"
     d="  M 147.33333,44.666667   C 147.33333,44.333333 147.33333,44.333333 147,44.333333   C 147,44.333333 147,44.333333 147,44.333333   C 146.66667,44.333333 146.66667,44.333333 146.66667,44.333333   C 146.66667,44.333333 146.66667,44.333333 146.66667,44.333333   C 146.33333,44.333333 146.33333,44.333333 146.33333,44.666667   C 135.66667,69.666667 135.66667,69.666667 135.66667,69.666667   C 135.33333,70 135.66667,70 136,70   C 137,70 137,70 137,70   C 137.33333,70 137.33333,70 137.33333,70   C 141.33333,60.666667 141.33333,60.666667 141.33333,60.666667   C 150.66667,60.666667 150.66667,60.666667 150.66667,60.666667   C 154.66667,70 154.66667,70 154.66667,70   C 154.66667,70 154.66667,70 155,70   C 158,70 158,70 158,70   C 158,70 158.33333,70 158,69.666667   z  M 141.66667,59.666667   C 146,49.666667 146,49.666667 146,49.666667   C 150.33333,59.666667 150.33333,59.666667 150.33333,59.666667   z "
     style="fill:#ffffff;fill-rule:nonzero;fill-opacity:1;stroke:none" />
  <path
     id="path27"
     d="  M 273.33333,44.666667   C 273,44.333333 273,44.333333 272.66667,44.333333   C 272.66667,44.333333 272.66667,44.333333 272.66667,44.333333   C 272.33333,44.333333 272.33333,44.333333 272.33333,44.333333   C 272.33333,44.333333 272.33333,44.333333 272.33333,44.333333   C 272.33333,44.333333 272,44.333333 272,44.666667   C 261.33333,69.666667 261.33333,69.666667 261.33333,69.666667   C 261,70 261.33333,70 261.66667,70   C 262.66667,70 262.66667,70 262.66667,70   C 263,70 263,70 263,70   C 267,60.666667 267,60.666667 267,60.666667   C 276.33333,60.666667 276.33333,60.666667 276.33333,60.666667   C 280.33333,70 280.33333,70 280.33333,70   C 280.33333,70 280.33333,70 280.66667,70   C 283.66667,70 283.66667,70 283.66667,70   C 283.66667,70 284,70 283.66667,69.666667   z  M 267.33333,59.666667   C 271.66667,49.666667 271.66667,49.666667 271.66667,49.666667   C 276,59.666667 276,59.666667 276,59.666667   z "
     style="fill:#ffffff;fill-rule:nonzero;fill-opacity:1;stroke:none" />
  <path
     id="path29"
     d="  M 193.33333,44.666667   C 190.33333,44.666667 190.33333,44.666667 190.33333,44.666667   C 190,44.666667 190,45 190,45   C 190,70 190,70 190,70   C 190,70 190,70 190.33333,70   C 193.33333,70 193.33333,70 193.33333,70   C 193.66667,70 193.66667,70 193.66667,70   C 193.66667,45 193.66667,45 193.66667,45   C 193.33333,44.666667 193.33333,44.666667 193.33333,44.666667   z "
     style="fill:#ffffff;fill-rule:nonzero;fill-opacity:1;stroke:none" />
  <path
     id="path31"
     d="  M 303,68.333333   C 293,68.333333 293,68.333333 293,68.333333   C 293,45 293,45 293,45   C 293,45 293,44.666667 292.66667,44.666667   C 289.66667,44.666667 289.66667,44.666667 289.66667,44.666667   C 289.33333,45 289.33333,45 289.33333,45   C 289.33333,70 289.33333,70 289.33333,70   C 289.66667,70 289.66667,70 289.66667,70   C 292.66667,70 292.66667,70 292.66667,70   C 292.66667,70 292.66667,70 292.66667,70   C 303,70 303,70 303,70   C 303,70 303,70 303,70   C 303,68.666667 303,68.666667 303,68.666667   C 303,68.333333 303,68.333333 303,68.333333   z "
     style="fill:#ffffff;fill-rule:nonzero;fill-opacity:1;stroke:none" />
  <path
     id="path33"
     d="  M 214,44.333333   C 206.33333,44.333333 200.33333,50 200.33333,57.666667   C 200.33333,65 206.33333,71 214,71   C 221.33333,71 227.33333,65 227.33333,57.666667   C 227.33333,50 221.33333,44.333333 214,44.333333   M 213.66667,69.666667   C 208.33333,69.666667 204,64.333333 204,57.666667   C 204,51 208.33333,45.333333 213.66667,45.333333   C 219.33333,45.333333 223.66667,51 223.66667,57.666667   C 223.66667,64.333333 219.33333,69.666667 213.66667,69.666667   z "
     style="fill:#ffffff;fill-rule:nonzero;fill-opacity:1;stroke:none" />
  <path
     id="path35"
     d="  M 174.66667,44.333333   C 167.33333,44.333333 161.33333,50 161.33333,57.666667   C 161.33333,65 167.33333,71 174.66667,71   C 178.33333,71 181.33333,70 183.66667,67.333333   C 183.66667,67.333333 183.66667,67.333333 183.66667,67   C 183.33333,67 183,66.333333 183,66.333333   C 182.66667,66 182.66667,66.333333 182.66667,66.333333   C 181,68.333333 178,69.666667 174.66667,69.666667   C 169.33333,69.666667 165,64.333333 165,57.666667   C 165,51 169.33333,45.333333 174.66667,45.333333   C 177.33333,45.333333 180.66667,46.666667 182.66667,48.666667   C 182.66667,49 183,49 183,48.666667   C 183,48.666667 183.66667,48 184,48   C 184,48 184,47.666667 183.66667,47.666667   C 181.33333,45.333333 178.33333,44.333333 174.66667,44.333333   z "
     style="fill:#ffffff;fill-rule:nonzero;fill-opacity:1;stroke:none" />
  <path
     id="path37"
     d="  M 130.33333,44.666667   C 128.66667,44.666667 128.66667,44.666667 128.66667,44.666667   C 128.33333,44.666667 128.33333,45 128.33333,45   C 128.33333,64 128.33333,64 128.33333,64   C 112,45 112,45 112,45   C 112,45 112,44.666667 111.66667,44.666667   C 107.66667,44.666667 107.66667,44.666667 107.66667,44.666667   C 107.66667,44.666667 107.33333,45 107.66667,45.333333   C 109.33333,47 109.33333,47 109.33333,47   C 109.33333,70 109.33333,70 109.33333,70   C 109.33333,70 109.33333,70 109.33333,70   C 111,70 111,70 111,70   C 111.33333,70 111.33333,70 111.33333,70   C 111.33333,49.333333 111.33333,49.333333 111.33333,49.333333   C 129,69.666667 129,69.666667 129,69.666667   C 129.33333,70 129.33333,70 129.33333,70   C 129.66667,70 129.66667,70 129.66667,70   C 129.66667,70 129.66667,70 129.66667,70   C 130.33333,70 130.33333,70 130.33333,70   C 130.33333,70 130.33333,70 130.33333,69.666667   C 130.33333,45 130.33333,45 130.33333,45   C 130.33333,44.666667 130.33333,44.666667 130.33333,44.666667   z "
     style="fill:#ffffff;fill-rule:nonzero;fill-opacity:1;stroke:none" />
  <path
     id="path39"
     d="  M 255.33333,44.666667   C 253.66667,44.666667 253.66667,44.666667 253.66667,44.666667   C 253.33333,44.666667 253.33333,45 253.33333,45   C 253.33333,64 253.33333,64 253.33333,64   C 237.33333,45 237.33333,45 237.33333,45   C 237.33333,45 237,44.666667 236.66667,44.666667   C 233,44.666667 233,44.666667 233,44.666667   C 232.66667,44.666667 232.33333,45 232.66667,45.333333   C 234.33333,47 234.33333,47 234.33333,47   C 234.33333,70 234.33333,70 234.33333,70   C 234.33333,70 234.33333,70 234.66667,70   C 236.33333,70 236.33333,70 236.33333,70   C 236.33333,70 236.33333,70 236.33333,70   C 236.33333,49.333333 236.33333,49.333333 236.33333,49.333333   C 254.33333,69.666667 254.33333,69.666667 254.33333,69.666667   C 254.33333,70 254.33333,70 254.66667,70   C 254.66667,70 254.66667,70 254.66667,70   C 254.66667,70 254.66667,70 254.66667,70   C 255.33333,70 255.33333,70 255.33333,70   C 255.33333,70 255.66667,70 255.66667,69.666667   C 255.66667,45 255.66667,45 255.66667,45   C 255.33333,44.666667 255.33333,44.666667 255.33333,44.666667   z "
     style="fill:#ffffff;fill-rule:nonzero;fill-opacity:1;stroke:none" />
  <path
     id="path41"
     d="  M 42.333333,9.6666667   C 44.333333,9.6666667 44.333333,9.6666667 44.333333,9.6666667   C 44.666667,9.6666667 45,9.3333333 45,7   C 43.666667,7.3333333 42.666667,8.3333333 42.333333,9.6666667   z "
     style="fill:#ffffff;fill-rule:nonzero;fill-opacity:1;stroke:none" />
  <path
     id="path43"
     d="  M 45.666667,7   C 46,7 46.333333,7 46.333333,7   C 46.333333,6 46.333333,4.6666667 46.333333,3.6666667   C 48.666667,3.6666667 48.666667,3.6666667 48.666667,3.6666667   C 48.666667,2 48.666667,2 48.666667,2   C 46.333333,2 46.333333,2 46.333333,2   C 46.333333,-0.33333333 46.333333,-0.33333333 46.333333,-0.33333333   C 45.666667,-0.33333333 45.666667,-0.33333333 45.666667,-0.33333333   C 45.666667,-0.33333333 45.666667,-0.33333333 45.666667,-0.33333333   C 45,-0.33333333 45,-0.33333333 45,-0.33333333   C 45,2 45,2 45,2   C 43,2 43,2 43,2   C 43,3.6666667 43,3.6666667 43,3.6666667   C 45,3.6666667 45,3.6666667 45,3.6666667   C 45,4.6666667 45,6 45,7   C 45.333333,7 45.333333,7 45.666667,7   z "
     style="fill:#ffffff;fill-rule:nonzero;fill-opacity:1;stroke:none" />
  <path
     id="path45"
     d="  M 7,47   C 7,46.666667 7,46.666667 7,46.333333   C 6.6666667,46.666667 6.3333333,47.333333 6.6666667,47.666667   C 7,48.666667 7.6666667,49 8.6666667,48.666667   C 9,48.333333 9,48.333333 9.3333333,48   C 9,48 9,48 9,48   C 8.3333333,48.333333 7.3333333,48 7,47   z "
     style="fill:#ffffff;fill-rule:nonzero;fill-opacity:1;stroke:none" />
  <path
     id="path47"
     d="  M 47,9.6666667   C 49,9.6666667 49,9.6666667 49,9.6666667   C 48.666667,8.3333333 47.666667,7.3333333 46.333333,7   C 46.666667,9.3333333 46.666667,9.6666667 47,9.6666667   z "
     style="fill:#ffffff;fill-rule:nonzero;fill-opacity:1;stroke:none" />
  <path
     id="path49"
     d="  M 45.666667,11.333333   C 42.666667,11.333333 42.666667,11.333333 42.666667,11.333333   C 43,13 44.333333,14 45.666667,14   C 45.666667,14 45.666667,14 45.666667,14   C 45.666667,14 45.666667,14 45.666667,14   C 47.333333,14 48.666667,13 49,11.333333   C 45.666667,11.333333 45.666667,11.333333 45.666667,11.333333   z "
     style="fill:#ffffff;fill-rule:nonzero;fill-opacity:1;stroke:none" />
  <path
     id="path51"
     d="  M 45.666667,57.666667   C 45.666667,57.666667 45.666667,57.666667 45.666667,57.666667   C 30.666667,57.666667 18.333333,59.333333 18.333333,61.333333   C 18.333333,63.333333 30.666667,65 45.666667,65   C 45.666667,65 45.666667,65 45.666667,65   C 60.666667,65 73,63.333333 73,61.333333   C 73,59.333333 60.666667,57.666667 45.666667,57.666667   z "
     style="fill:#ffffff;fill-rule:nonzero;fill-opacity:1;stroke:none" />
  <path
     id="path53"
     d="  M 84.333333,47   C 84,48 83.333333,48.333333 82.333333,48   C 82.333333,48 82.333333,48 82,48   C 82.333333,48.333333 82.666667,48.333333 83,48.666667   C 83.666667,49 84.333333,48.666667 84.666667,47.666667   C 85,47.333333 85,46.666667 84.333333,46.333333   C 84.666667,46.666667 84.666667,46.666667 84.333333,47   z "
     style="fill:#ffffff;fill-rule:nonzero;fill-opacity:1;stroke:none" />
  <path
     id="path55"
     d="  M 66.333333,49.666667   C 61,49 53.333333,48.333333 45.666667,48.333333   C 45.666667,48.333333 45.666667,48.333333 45.666667,48.333333   C 45.666667,48.333333 45.666667,48.333333 45.666667,48.333333   C 38,48.333333 30.666667,49 25,49.666667   C 19.333333,50.666667 16.666667,51.666667 15.666667,53   C 16,53.666667 16.333333,54.333333 16.666667,55   C 16.333333,55 16.333333,55.333333 16.333333,55.666667   C 16.333333,56.333333 16.666667,57 17.333333,57   C 17.666667,58 17.666667,58.666667 18,59.666667   C 19,58.666667 21.333333,58 26.333333,57.333333   C 31.333333,56.666667 38.333333,56.333333 45.666667,56.333333   C 45.666667,56.333333 45.666667,56.333333 45.666667,56.333333   C 53,56.333333 60,56.666667 65.333333,57.333333   C 70,58 72.333333,58.666667 73.666667,59.666667   C 73.666667,58.666667 73.666667,58 74,57   C 74.666667,57 75,56.333333 75,55.666667   C 75,55.333333 75,55 74.666667,55   C 75,54.333333 75.333333,53.666667 75.666667,53   C 75,51.666667 72,50.666667 66.333333,49.666667   M 20.666667,56   C 20,56 19.333333,55.333333 19.333333,54.666667   C 19.333333,54 20,53.333333 20.666667,53.333333   C 21.333333,53.333333 22,54 22,54.666667   C 22,55.333333 21.333333,56 20.666667,56   M 28.333333,55.333333   C 26.666667,55.333333 25,54.666667 25,53.666667   C 25,52.666667 26.666667,51.333333 28.333333,51.333333   C 30.333333,51 32,52 32,53   C 32,54 30.333333,55 28.333333,55.333333   M 37,54   C 36.333333,54 35.666667,53.333333 35.666667,52.666667   C 35.666667,52 36.333333,51.333333 37,51.333333   C 37.666667,51.333333 38.333333,52 38.333333,52.666667   C 38.333333,53.333333 37.666667,54 37,54   M 45.666667,54.333333   C 43.666667,54.333333 42.333333,53.333333 42.333333,52.333333   C 42.333333,51.333333 43.666667,50.333333 45.666667,50.333333   C 47.666667,50.333333 49,51.333333 49,52.333333   C 49,53.333333 47.666667,54.333333 45.666667,54.333333   M 54.333333,54   C 53.666667,54 53,53.333333 53,52.666667   C 53,52 53.666667,51.333333 54.333333,51.333333   C 55,51.333333 55.666667,52 55.666667,52.666667   C 55.666667,53.333333 55,54 54.333333,54   M 63,55.333333   C 61,55 59.333333,54 59.333333,53   C 59.333333,52 61,51 63,51.333333   C 65,51.333333 66.333333,52.666667 66.333333,53.666667   C 66.333333,54.666667 65,55.333333 63,55.333333   M 70.666667,56   C 70,56 69.666667,55.333333 69.666667,54.666667   C 69.666667,54 70,53.333333 70.666667,53.333333   C 71.666667,53.333333 72,54 72,54.666667   C 72,55.333333 71.666667,56 70.666667,56   z "
     style="fill:#ffffff;fill-rule:nonzero;fill-opacity:1;stroke:none" />
  <path
     id="path57"
     d="  M 90.333333,34.666667   C 91,34.666667 91.333333,34 91.333333,33.666667   C 91.333333,33 91,32.666667 90.333333,32.666667   C 90.333333,32.666667 90,32.666667 90,33   C 90,32.333333 89.666667,31.666667 89.666667,31.333333   C 90,31.333333 90,31.333333 90.333333,31.333333   C 90.666667,31.333333 91,31 91,30.666667   C 91,30 90.666667,29.666667 90.333333,29.666667   C 90,29.666667 89.666667,29.666667 89.333333,30   C 89.333333,29.666667 89,29 88.666667,28.666667   C 89,28.666667 89,28.666667 89,28.666667   C 89.666667,28.666667 90,28 90,27.666667   C 90,27 89.666667,26.666667 89,26.666667   C 88.666667,26.666667 88.333333,27 88.333333,27.666667   C 88,27 87.666667,26.666667 87,26   C 87.333333,26 87.333333,26 87.333333,26   C 87.666667,26 88,25.666667 88,25.333333   C 88,24.666667 87.666667,24.333333 87.333333,24.333333   C 86.666667,24.333333 86.333333,24.666667 86.333333,25.333333   C 86.333333,25.333333 86.333333,25.333333 86.333333,25.333333   C 86,25 86,25 85.666667,24.666667   C 85.333333,24.333333 85.333333,24.333333 85,24.333333   C 85.333333,24.333333 86,23.666667 86,23.333333   C 86,22.666667 85.333333,22.333333 85,22.333333   C 84.666667,22.333333 84,22.666667 84,23.333333   C 84,23.666667 84,23.666667 84,23.666667   C 83.666667,23.333333 83,23 82.666667,22.666667   C 83,22.666667 83.333333,22.333333 83.333333,21.666667   C 83.333333,21.333333 83,21 82.333333,21   C 82,21 81.666667,21.333333 81.666667,21.666667   C 81.666667,22 81.666667,22 81.666667,22.333333   C 81,22 80.666667,21.666667 80,21.666667   C 80.333333,21.333333 80.333333,21 80.333333,20.666667   C 80.333333,20.333333 80,20 79.666667,20   C 79.333333,20 79,20.333333 79,20.666667   C 79,21 79,21 79,21.333333   C 78.333333,21 77.666667,21 77,21   C 77.333333,20.666667 77.666667,20.333333 77.666667,20   C 77.666667,19.666667 77.333333,19.333333 76.666667,19.333333   C 76.333333,19.333333 76,19.666667 76,20   C 76,20.333333 76,20.666667 76.333333,20.666667   C 75.666667,20.666667 75,20.666667 74.333333,20.666667   C 74.333333,20.333333 74.666667,20.333333 74.666667,20   C 74.666667,19.333333 74.333333,19 74,19   C 73.666667,19 73.333333,19.333333 73.333333,20   C 73.333333,20.333333 73.333333,20.333333 73.666667,20.666667   C 73,20.666667 72.333333,20.666667 71.666667,20.666667   C 71.666667,20.666667 72,20.333333 72,20   C 72,19.666667 71.666667,19.333333 71,19.333333   C 70.666667,19.333333 70.333333,19.666667 70.333333,20   C 70.333333,20.333333 70.666667,20.666667 70.666667,20.666667   C 70.333333,20.666667 69.666667,21 69,21   C 69,20.666667 69.333333,20.666667 69.333333,20.333333   C 69.333333,20 69,19.666667 68.333333,19.666667   C 68,19.666667 67.666667,20 67.666667,20.333333   C 67.666667,20.666667 68,21 68.333333,21   C 68,21 67.666667,21 67.666667,21.333333   C 67.333333,20.666667 67,20.333333 66.666667,19.666667   C 67,19.666667 67,19.333333 67,19   C 67,18.333333 66.666667,18 66,18   C 66,18 65.666667,18.333333 65.333333,18.333333   C 65,18.333333 64.666667,18 64.333333,17.666667   C 64.666667,17.666667 64.666667,17.333333 64.666667,17   C 64.666667,16.333333 64.333333,16 64,16   C 63.333333,16 63,16.333333 63,17   C 62.666667,16.666667 62.333333,16.666667 61.666667,16.333333   C 62,16.333333 62,16 62,15.666667   C 62,15.333333 61.666667,14.666667 61,14.666667   C 60.666667,14.666667 60.333333,15.333333 60.333333,15.666667   C 60.333333,15.666667 60.333333,15.666667 60.333333,16   C 59.666667,15.666667 59.333333,15.666667 58.666667,15.666667   C 59,15.333333 59,15.333333 59,15   C 59,14.666667 58.666667,14 58,14   C 57.666667,14 57.333333,14.666667 57.333333,15   C 57.333333,15.333333 57.333333,15.333333 57.333333,15.333333   C 57,15.333333 56.333333,15.333333 56,15.333333   C 56,15.333333 56,15.333333 56,15   C 56,14.666667 55.666667,14.333333 55,14.333333   C 54.666667,14.333333 54.333333,14.666667 54.333333,15   C 54.333333,15.333333 54.333333,15.333333 54.333333,15.333333   C 53.666667,15.333333 53.333333,15.333333 52.666667,15.333333   C 53,15.333333 53,15.333333 53,15.333333   C 53,14.666667 52.333333,14.333333 52,14.333333   C 51.666667,14.333333 51,14.666667 51,15.333333   C 51.333333,15.666667 51.333333,15.666667 51.333333,15.666667   C 51,15.666667 50.333333,15.666667 50,16   C 50,15.666667 50,15.666667 50,15.666667   C 50,15 49.666667,14.666667 49,14.666667   C 48.666667,14.666667 48.333333,15 48.333333,15.666667   C 48.333333,16 48.333333,16 48.333333,16   C 48,16.333333 47.666667,16.333333 47.333333,16.333333   C 47.333333,16.333333 47.333333,16.333333 47.333333,16   C 47.333333,15 46.666667,14.333333 45.666667,14.333333   C 45.666667,14.333333 45.666667,14.333333 45.666667,14.333333   C 45.666667,14.333333 45.666667,14.333333 45.666667,14.333333   C 44.666667,14.333333 44,15 44,16   C 44,16.333333 44,16.333333 44,16.333333   C 43.666667,16.333333 43.333333,16.333333 43,16   C 43,15.666667 43,15.666667 43,15.666667   C 43,15 42.666667,14.666667 42.333333,14.666667   C 41.666667,14.666667 41.333333,15 41.333333,15.666667   C 41.333333,15.666667 41.333333,15.666667 41.333333,16   C 41,15.666667 40.666667,15.666667 40,15.666667   C 40.333333,15.666667 40.333333,15.333333 40.333333,15.333333   C 40.333333,14.666667 40,14.333333 39.333333,14.333333   C 39,14.333333 38.666667,14.666667 38.666667,15.333333   C 38.666667,15.333333 38.666667,15.333333 38.666667,15.333333   C 38,15.333333 37.666667,15.333333 37.333333,15.333333   C 37.333333,15.333333 37.333333,15.333333 37.333333,15   C 37.333333,14.666667 37,14.333333 36.333333,14.333333   C 36,14.333333 35.666667,14.666667 35.666667,15   C 35.666667,15.333333 35.666667,15.333333 35.666667,15.333333   C 35,15.333333 34.666667,15.333333 34,15.333333   C 34.333333,15.333333 34.333333,15.333333 34.333333,15   C 34.333333,14.666667 33.666667,14 33.333333,14   C 33,14 32.333333,14.666667 32.333333,15   C 32.333333,15.333333 32.666667,15.333333 32.666667,15.666667   C 32,15.666667 31.666667,15.666667 31.333333,16   C 31.333333,15.666667 31.333333,15.666667 31.333333,15.666667   C 31.333333,15.333333 30.666667,14.666667 30.333333,14.666667   C 30,14.666667 29.333333,15.333333 29.333333,15.666667   C 29.333333,16 29.666667,16.333333 29.666667,16.333333   C 29.333333,16.666667 28.666667,16.666667 28.333333,17   C 28.333333,16.333333 28,16 27.666667,16   C 27,16 26.666667,16.333333 26.666667,17   C 26.666667,17.333333 26.666667,17.666667 27,17.666667   C 26.666667,18 26.333333,18.333333 26,18.333333   C 26,18.333333 25.666667,18 25.333333,18   C 24.666667,18 24.333333,18.333333 24.333333,19   C 24.333333,19.333333 24.666667,19.666667 25,19.666667   C 24.333333,20.333333 24,20.666667 23.666667,21.333333   C 23.666667,21 23.333333,21 23.333333,21   C 23.333333,21 23.666667,20.666667 23.666667,20.333333   C 23.666667,20 23.333333,19.666667 23,19.666667   C 22.666667,19.666667 22.333333,20 22.333333,20.333333   C 22.333333,20.666667 22.333333,20.666667 22.333333,21   C 22,21 21.333333,20.666667 20.666667,20.666667   C 21,20.666667 21,20.333333 21,20   C 21,19.666667 20.666667,19.333333 20.333333,19.333333   C 20,19.333333 19.666667,19.666667 19.666667,20   C 19.666667,20.333333 19.666667,20.666667 20,20.666667   C 19.333333,20.666667 18.666667,20.666667 18,20.666667   C 18,20.333333 18.333333,20.333333 18.333333,20   C 18.333333,19.333333 18,19 17.666667,19   C 17,19 16.666667,19.333333 16.666667,20   C 16.666667,20.333333 17,20.333333 17,20.666667   C 16.333333,20.666667 15.666667,20.666667 15.333333,20.666667   C 15.333333,20.666667 15.333333,20.333333 15.333333,20   C 15.333333,19.666667 15,19.333333 14.666667,19.333333   C 14.333333,19.333333 14,19.666667 14,20   C 14,20.333333 14,20.666667 14.333333,21   C 13.666667,21 13,21 12.333333,21.333333   C 12.333333,21 12.666667,21 12.666667,20.666667   C 12.666667,20.333333 12.333333,20 11.666667,20   C 11.333333,20 11,20.333333 11,20.666667   C 11,21 11.333333,21.333333 11.666667,21.666667   C 11,21.666667 10.333333,22 9.6666667,22.333333   C 9.6666667,22 9.6666667,22 9.6666667,21.666667   C 9.6666667,21.333333 9.3333333,21 9,21   C 8.6666667,21 8.3333333,21.333333 8.3333333,21.666667   C 8.3333333,22.333333 8.3333333,22.666667 9,22.666667   C 8.3333333,23 7.6666667,23.333333 7.3333333,23.666667   C 7.3333333,23.333333 7.3333333,23.333333 7.3333333,23.333333   C 7.3333333,22.666667 7,22.333333 6.3333333,22.333333   C 6,22.333333 5.6666667,22.666667 5.6666667,23.333333   C 5.6666667,23.666667 6,24.333333 6.3333333,24.333333   C 6.3333333,24.333333 6,24.333333 6,24.666667   C 5.6666667,25 5.3333333,25 5,25.333333   C 5,25.333333 5,25.333333 5,25.333333   C 5,24.666667 4.6666667,24.333333 4,24.333333   C 3.6666667,24.333333 3.3333333,24.666667 3.3333333,25.333333   C 3.3333333,25.666667 3.6666667,26 4,26   C 4.3333333,26 4.3333333,26 4.3333333,26   C 4,26.666667 3.6666667,27 3.3333333,27.666667   C 3,27 2.6666667,26.666667 2.3333333,26.666667   C 2,26.666667 1.6666667,27 1.6666667,27.666667   C 1.6666667,28 2,28.666667 2.3333333,28.666667   C 2.6666667,28.666667 2.6666667,28.666667 2.6666667,28.666667   C 2.3333333,29 2.3333333,29.666667 2,30   C 2,29.666667 1.6666667,29.666667 1.3333333,29.666667   C 0.66666667,29.666667 0.33333333,30 0.33333333,30.666667   C 0.33333333,31 0.66666667,31.333333 1.3333333,31.333333   C 1.6666667,31.333333 1.6666667,31.333333 1.6666667,31.333333   C 1.6666667,31.666667 1.6666667,32.333333 1.6666667,33   C 1.3333333,32.666667 1.3333333,32.666667 1,32.666667   C 0.66666667,32.666667 0.33333333,33 0.33333333,33.666667   C 0.33333333,34 0.66666667,34.666667 1,34.666667   C 1.3333333,34.666667 1.3333333,34.333333 1.6666667,34.333333   C 1.6666667,34.666667 1.6666667,35.333333 2,36   C 1.6666667,36 1.6666667,36 1.6666667,36   C 1.3333333,36 0.66666667,36.333333 0.66666667,36.666667   C 0.66666667,37.333333 1.3333333,37.666667 1.6666667,37.666667   C 2,37.666667 2.3333333,37.666667 2.3333333,37.333333   C 2.3333333,37.666667 2.6666667,38 3,38.666667   C 2.3333333,38.666667 2,39 2,39.333333   C 2,40 2.3333333,40.333333 3,40.333333   C 3.3333333,40.333333 3.6666667,40.333333 3.6666667,40   C 3.6666667,40.333333 4,40.333333 4,40.666667   C 2.6666667,41 2,42.333333 2,43.333333   C 4.3333333,42 6.3333333,44 7,46   C 7.3333333,45.666667 7.6666667,45.666667 8,45.666667   C 9,45.666667 9.6666667,46.333333 9.6666667,47.333333   C 9.6666667,48 9.6666667,48.333333 9.3333333,48.666667   C 11.666667,48.666667 14,50.333333 15,52   C 16.333333,50.333333 19,49.333333 25,48.333333   C 30.333333,47.666667 37.666667,47 45.666667,47   C 53.666667,47 61,47.666667 66.666667,48.333333   C 72.333333,49.333333 75.333333,50.333333 76.333333,52   C 77.666667,50.333333 79.666667,48.666667 82,48.666667   C 81.666667,48.333333 81.666667,48 81.666667,47.333333   C 81.666667,46.333333 82.333333,45.666667 83.333333,45.666667   C 83.666667,45.666667 84,45.666667 84.333333,46   C 85,44 87,42 89.666667,43.333333   C 89.333333,42.333333 89,41 87.333333,40.666667   C 87.333333,40.333333 87.666667,40.333333 87.666667,40   C 88,40.333333 88.333333,40.333333 88.333333,40.333333   C 89,40.333333 89.333333,40 89.333333,39.333333   C 89.333333,39 89,38.666667 88.666667,38.666667   C 88.666667,38 89,37.666667 89,37.333333   C 89.333333,37.666667 89.333333,37.666667 89.666667,37.666667   C 90.333333,37.666667 90.666667,37.333333 90.666667,36.666667   C 90.666667,36.333333 90.333333,36 89.666667,36   C 89.666667,36 89.666667,36 89.666667,36   C 89.666667,35.333333 89.666667,34.666667 89.666667,34.333333   C 90,34.333333 90.333333,34.666667 90.333333,34.666667   M 62.666667,19   C 65.333333,21 66.333333,24.333333 65.666667,27.666667   C 60.333333,26 54.333333,25.333333 48,25   C 47.666667,22.666667 47.333333,20 47.333333,17.666667   C 50.666667,17 58.333333,15.666667 62.666667,19   M 45.666667,41.666667   C 44.666667,41.333333 43.666667,40.666667 43.666667,39.333333   C 43.666667,38.333333 44.666667,37.333333 45.666667,37.333333   C 46.666667,37.333333 47.666667,38.333333 47.666667,39.333333   C 47.666667,40.666667 46.666667,41.333333 45.666667,41.666667   M 28.666667,19   C 33,15.666667 41,17 44,17.666667   C 44,20 43.666667,22.666667 43.333333,25   C 37,25.333333 31,26 25.666667,27.666667   C 25.333333,24.333333 26.333333,21 28.666667,19   M 24.333333,47   C 24,47.333333 23.333333,47.666667 22.666667,47.666667   C 21.333333,48 20.333333,47.666667 19.666667,47.333333   C 19.666667,47 19.666667,47 19.666667,46.666667   C 19.666667,46 19.333333,45.666667 18.666667,45.666667   C 18,45.666667 17.333333,46 17.333333,46.666667   C 17.333333,47.333333 17.666667,47.666667 18,48   C 17.666667,49.666667 15.666667,50 15,49.666667   C 13.333333,49.666667 13,48.333333 13,48   C 13,47.333333 13.333333,46.666667 15,47   C 15.333333,46.666667 15,46 14,45.666667   C 15.333333,45.666667 15.666667,45 16.333333,43.666667   C 16,43.333333 14.333333,43 13.333333,44   C 14,43 14,42.333333 14,41.666667   C 12.333333,41.666667 11.666667,42.333333 10.333333,44.333333   C 10,41.333333 9.3333333,40 7.6666667,39   C 7.3333333,39.333333 7,40.333333 6.6666667,41   C 6,40.666667 5.3333333,40.666667 5,40.666667   C 5.6666667,39.333333 6.3333333,38 7.6666667,37   C 7.6666667,37 2,29 9.3333333,24.333333   C 13.333333,22 18.333333,21.333333 23.333333,22.333333   C 23,22.666667 23,22.666667 23,22.666667   C 23,22.666667 23,22.666667 23,22.666667   C 22.333333,22.666667 22,23.333333 22,23.666667   C 22,24 22.333333,24.333333 22.333333,24.333333   C 22.333333,25 22.333333,25.333333 22.333333,25.666667   C 21.666667,25.666667 21.666667,26 21.666667,26.666667   C 21.666667,27 21.666667,27.333333 22,27.333333   C 22,27.666667 22,28.333333 22,28.666667   C 17.333333,30.333333 13.333333,32.333333 10,34.666667   C 10,35 10,35 10,35   C 9.6666667,35 9.6666667,35 9.6666667,35   C 10,35.333333 10,35.333333 10,35.333333   C 10,35.333333 10,35.333333 10,35.333333   C 10,35.333333 10,35 10.333333,35   C 13.333333,33 17.666667,31.333333 22.333333,30   C 22.333333,31 22.666667,32 23,33.333333   C 23.333333,33.333333 24.333333,34 24.666667,34.333333   C 24.333333,35.333333 23.666667,36 22.333333,36   C 22.666667,37 23,38 24.333333,39   C 23.333333,39.666667 22,39 21.333333,38.666667   C 21.333333,39 21.333333,40 22.333333,40.666667   C 20.333333,40.666667 19.666667,42 19,42.666667   C 19.666667,43 20.666667,44 22.666667,43.333333   C 22,43.666667 22,44.333333 22.333333,45.333333   C 24,43.666667 25.333333,44 25.666667,45   C 25.666667,45.333333 25.333333,46.333333 24.333333,47   M 26.333333,43.666667   C 25.333333,43.666667 24.666667,42.666667 24.666667,41.666667   C 24.666667,40.666667 25.333333,40 26.333333,40   C 27.333333,40 28,40.666667 28,41.666667   C 28,42.666667 27.333333,43.666667 26.333333,43.666667   M 40.666667,45.333333   C 39.666667,45.666667 37.666667,45.333333 36.333333,44.333333   C 36.333333,44 36.666667,43.666667 36.666667,43.333333   C 36.666667,42.666667 36,42 35.333333,42   C 34.666667,42 34,42.666667 34,43.333333   C 34,44 34.333333,44.333333 34.666667,44.333333   C 33.333333,45.666667 32,46.333333 30.333333,46   C 29,45.666667 28.333333,44.666667 28.333333,44.333333   C 28.333333,43.666667 29.333333,42.333333 31.333333,43.666667   C 31.333333,42.666667 31,42 30.333333,41.666667   C 32.333333,41.666667 33.333333,40.666667 33.666667,40   C 32.666667,39.333333 32,38.666667 30,39   C 30.666667,38 30.333333,37.333333 30,36.666667   C 29.666667,37.666667 28.666667,38.666667 27.666667,38.333333   C 28.333333,37 28.333333,35.666667 28.333333,34.666667   C 27,35.333333 26.333333,35 25.666667,34.333333   C 26,33.333333 28,32.333333 28,32.333333   C 27,31.333333 26.666667,30 26.333333,29   C 31.333333,27.666667 37,27 43,27   C 42.666667,27.666667 42.666667,28.333333 42.333333,29.333333   C 43,29.333333 44,29.666667 44.666667,30.666667   C 44,31.333333 43.333333,31.666667 42.666667,32   C 41.666667,32.666667 42,34 43.333333,35   C 44,35.666667 44,36.666667 43.666667,37   C 42.666667,38 40.333333,37 40,35.333333   C 39.333333,36.333333 39.333333,37 39.666667,37.666667   C 37.666667,37.666667 37,39 36.666667,39.666667   C 37.333333,40.333333 38.333333,41 40,41   C 39.666667,41.666667 40,42.666667 40.333333,43   C 41,42 42.666667,40.666667 44,41.666667   C 45,43 44,45.333333 40.666667,45.333333   M 61.333333,46   C 59.333333,46.333333 58,45.666667 56.666667,44.333333   C 57,44.333333 57.333333,44 57.333333,43.333333   C 57.333333,42.666667 56.666667,42 56,42   C 55.333333,42 55,42.666667 55,43.333333   C 55,43.666667 55,44 55,44.333333   C 53.666667,45.333333 52,45.666667 50.666667,45.333333   C 47.333333,45.333333 46.333333,43 47.666667,41.666667   C 48.666667,40.666667 50.666667,42 51,43   C 51.666667,42.666667 51.666667,41.666667 51.666667,41   C 53,41 54,40.333333 55,39.666667   C 54.333333,39 53.666667,37.666667 51.666667,37.666667   C 52,37 52,36.333333 51.333333,35.333333   C 51,37 48.666667,38 48,37   C 47.666667,36.666667 47.333333,35.666667 48.333333,35   C 49.333333,34 49.666667,32.666667 48.666667,32   C 48,31.666667 47.333333,31.333333 46.666667,30.666667   C 46.666667,30.666667 46.666667,30.666667 46.666667,30.666667   C 47.333333,29.666667 48.333333,29.333333 49,29.333333   C 48.666667,28.333333 48.666667,27.666667 48.333333,27   C 54.333333,27 60,27.666667 65.333333,29   C 65,30 64.333333,31.333333 63.333333,32.333333   C 63.333333,32.333333 65.333333,33.333333 65.666667,34.333333   C 65,35 64.333333,35.333333 63,34.666667   C 63,35.666667 63,37 64,38.333333   C 62.666667,38.666667 61.666667,37.666667 61.333333,36.666667   C 61,37.333333 61,38 61.333333,39   C 59.666667,38.666667 58.666667,39.333333 58,40   C 58,40.666667 59,41.666667 61,41.666667   C 60.333333,42 60,42.666667 60,43.666667   C 62,42.333333 63.333333,43.666667 63,44.333333   C 63,44.666667 62.666667,45.666667 61.333333,46   M 63.333333,41.666667   C 63.333333,40.666667 64,40 65,40   C 66,40 66.666667,40.666667 66.666667,41.666667   C 66.666667,42.666667 66,43.666667 65,43.666667   C 64,43.666667 63.333333,42.666667 63.333333,41.666667   M 84.666667,41   C 84.666667,40.333333 84,39.333333 83.666667,39   C 82,40 81.333333,41.333333 81,44.333333   C 80,42.333333 79,41.666667 77.666667,41.666667   C 77.333333,42.333333 77.333333,43 78.333333,44   C 77,43 75.666667,43.333333 75,43.666667   C 75.666667,45 76.333333,45.666667 77.333333,45.666667   C 76.333333,46 76.333333,46.666667 76.333333,47   C 78,46.666667 78.333333,47.333333 78.333333,48   C 78.333333,48.333333 78,49.666667 76.333333,49.666667   C 75.666667,50 74,49.666667 73.333333,48   C 73.666667,47.666667 74,47.333333 74,46.666667   C 74,46 73.333333,45.666667 72.666667,45.666667   C 72.333333,45.666667 71.666667,46 71.666667,46.666667   C 71.666667,47 71.666667,47 71.666667,47.333333   C 71,47.666667 70,48 68.666667,47.666667   C 68,47.666667 67.666667,47.333333 67,47   C 66,46.333333 65.666667,45.333333 66,45   C 66,44 67.333333,43.666667 69,45.333333   C 69.333333,44.333333 69.333333,43.666667 68.666667,43.333333   C 70.666667,44 71.666667,43 72.333333,42.666667   C 71.666667,42 71,40.666667 69.333333,40.666667   C 70,40 70,39 70,38.666667   C 69.333333,39 68.333333,39.666667 67,39   C 68.333333,38 69,37 69,36   C 68,36 67.333333,35.333333 67,34.333333   C 67.333333,34 68,33.333333 68.333333,33.333333   C 68.666667,32 69,31 69.333333,30   C 74,31.333333 78,33 81.333333,35   C 81.333333,35.333333 81.333333,35.333333 81.333333,35.333333   C 81.333333,35.333333 81.333333,35.333333 81.333333,35.333333   C 81.666667,35.333333 81.666667,35 81.666667,35   C 81.666667,35 81.666667,35 81.666667,35   C 81.333333,35 81.333333,35 81.333333,34.666667   C 78,32.333333 74,30.333333 69.333333,28.666667   C 69.333333,28.333333 69.333333,27.666667 69.333333,27.333333   C 69.666667,27.333333 70,27 70,26.666667   C 70,26 69.666667,25.666667 69.333333,25.666667   C 69,25.333333 69,25 69,24.333333   C 69.333333,24.333333 69.333333,24 69.333333,23.666667   C 69.333333,23.333333 69,22.666667 68.666667,22.666667   C 68.333333,22.666667 68.333333,22.666667 68.333333,22.666667   C 68.333333,22.666667 68.333333,22.666667 68.333333,22.333333   C 73,21.333333 78.333333,22 82,24.333333   C 89.333333,29 83.666667,37 83.666667,37   C 85,38 86,39.333333 86.333333,40.666667   C 86,40.666667 85.333333,40.666667 84.666667,41   z "
     style="fill:#ffffff;fill-rule:nonzero;fill-opacity:1;stroke:none" />
</svg>
